<svg width="151" height="40" viewBox="0 0 151 40" fill="none" xmlns="http://www.w3.org/2000/svg">
<path d="M21 1.5H131C141.217 1.5 149.5 9.78273 149.5 20C149.5 30.2173 141.217 38.5 131 38.5H21C10.7827 38.5 2.5 30.2173 2.5 20C2.5 9.78273 10.7827 1.5 21 1.5Z" fill="black" stroke="#CD0200" stroke-width="3"/>
<path d="M64.12 14.8L62.26 15.2V26.4L64.12 26.8V28H58.42V26.8L60.28 26.4V21.54H54.5V26.4L56.36 26.8V28H50.66V26.8L52.52 26.4V15.2L50.66 14.8V13.6H56.36V14.8L54.5 15.2V19.88H60.28V15.2L58.42 14.8V13.6H64.12V14.8ZM69.5312 28.2C68.7446 28.2 68.0846 28.0733 67.5513 27.82C67.0179 27.5667 66.5913 27.2133 66.2713 26.76C65.9513 26.2933 65.7179 25.7467 65.5713 25.12C65.4379 24.48 65.3713 23.7733 65.3713 23C65.3713 22.2267 65.4379 21.5267 65.5713 20.9C65.7179 20.26 65.9513 19.7133 66.2713 19.26C66.5913 18.7933 67.0179 18.4333 67.5513 18.18C68.0846 17.9267 68.7446 17.8 69.5312 17.8C70.3179 17.8 70.9779 17.9267 71.5113 18.18C72.0446 18.4333 72.4713 18.7933 72.7913 19.26C73.1113 19.7133 73.3379 20.26 73.4713 20.9C73.6179 21.5267 73.6913 22.2267 73.6913 23C73.6913 23.7733 73.6179 24.48 73.4713 25.12C73.3379 25.7467 73.1113 26.2933 72.7913 26.76C72.4713 27.2133 72.0446 27.5667 71.5113 27.82C70.9779 28.0733 70.3179 28.2 69.5312 28.2ZM69.5312 27C69.9846 27 70.3446 26.8867 70.6113 26.66C70.8913 26.4333 71.0979 26.1333 71.2313 25.76C71.3779 25.3733 71.4713 24.9467 71.5113 24.48C71.5513 24 71.5713 23.5067 71.5713 23C71.5713 22.5067 71.5513 22.02 71.5113 21.54C71.4713 21.06 71.3779 20.6333 71.2313 20.26C71.0979 19.8733 70.8913 19.5667 70.6113 19.34C70.3446 19.1133 69.9846 19 69.5312 19C69.0646 19 68.6979 19.1133 68.4313 19.34C68.1646 19.5667 67.9579 19.8733 67.8113 20.26C67.6779 20.6333 67.5913 21.06 67.5513 21.54C67.5113 22.02 67.4913 22.5067 67.4913 23C67.4913 23.5067 67.5113 24 67.5513 24.48C67.5913 24.9467 67.6779 25.3733 67.8113 25.76C67.9579 26.1333 68.1646 26.4333 68.4313 26.66C68.6979 26.8867 69.0646 27 69.5312 27ZM75.1122 26.8L76.6122 26.4V19.6L75.0922 19.2V18H78.1122L78.5122 19.6C78.6189 19.0933 78.9122 18.6667 79.3922 18.32C79.8855 17.9733 80.4589 17.8 81.1122 17.8C81.9789 17.8 82.6122 17.9733 83.0122 18.32C83.4255 18.6667 83.6922 19.1267 83.8122 19.7C84.0255 19.1133 84.3722 18.6533 84.8522 18.32C85.3322 17.9733 85.8989 17.8 86.5522 17.8C87.1389 17.8 87.6122 17.8933 87.9722 18.08C88.3455 18.2533 88.6322 18.4933 88.8322 18.8C89.0455 19.0933 89.1855 19.4333 89.2522 19.82C89.3322 20.1933 89.3722 20.58 89.3722 20.98V26.4L90.8722 26.8V28H87.4522V22.56C87.4522 22.08 87.4389 21.64 87.4122 21.24C87.3855 20.8267 87.3122 20.4733 87.1922 20.18C87.0855 19.8733 86.9189 19.6333 86.6922 19.46C86.4789 19.2867 86.1789 19.2 85.7922 19.2C85.4455 19.2 85.1522 19.3067 84.9122 19.52C84.6855 19.7333 84.4989 20 84.3522 20.32C84.2055 20.6267 84.0989 20.96 84.0322 21.32C83.9655 21.6667 83.9322 21.9867 83.9322 22.28V26.4L85.4322 26.8V28H82.0322V22.56C82.0322 22.08 82.0189 21.64 81.9922 21.24C81.9655 20.8267 81.8922 20.4733 81.7722 20.18C81.6655 19.8733 81.4989 19.6333 81.2722 19.46C81.0589 19.2867 80.7589 19.2 80.3722 19.2C80.0522 19.2 79.7722 19.3067 79.5322 19.52C79.2922 19.72 79.0989 19.9733 78.9522 20.28C78.8055 20.5733 78.6922 20.8933 78.6122 21.24C78.5455 21.5733 78.5122 21.88 78.5122 22.16V26.4L80.0122 26.8V28H75.1122V26.8ZM96.0738 28.2C95.2738 28.2 94.6071 28.08 94.0738 27.84C93.5404 27.6 93.1138 27.2533 92.7938 26.8C92.4738 26.3467 92.2471 25.8 92.1138 25.16C91.9804 24.52 91.9138 23.8 91.9138 23C91.9138 22.2 91.9804 21.48 92.1138 20.84C92.2471 20.1867 92.4738 19.64 92.7938 19.2C93.1271 18.7467 93.5604 18.4 94.0938 18.16C94.6404 17.92 95.3138 17.8 96.1138 17.8C96.7938 17.8 97.3604 17.8933 97.8138 18.08C98.2671 18.2667 98.6338 18.5533 98.9138 18.94C99.1938 19.3133 99.3938 19.7933 99.5138 20.38C99.6338 20.9533 99.6938 21.6333 99.6938 22.42C99.6938 22.58 99.6938 22.7467 99.6938 22.92C99.6938 23.08 99.6871 23.2533 99.6738 23.44H94.0337C94.0337 23.9333 94.0538 24.4 94.0938 24.84C94.1338 25.2667 94.2204 25.64 94.3538 25.96C94.5004 26.28 94.7071 26.5333 94.9738 26.72C95.2404 26.9067 95.6071 27 96.0738 27C96.4604 27 96.7671 26.94 96.9938 26.82C97.2338 26.6867 97.4138 26.5267 97.5338 26.34C97.6538 26.14 97.7338 25.9267 97.7738 25.7C97.8138 25.4733 97.8404 25.2533 97.8538 25.04H99.6738C99.6338 25.4267 99.5471 25.8133 99.4138 26.2C99.2938 26.5733 99.0938 26.9133 98.8138 27.22C98.5471 27.5133 98.1938 27.7533 97.7538 27.94C97.3138 28.1133 96.7538 28.2 96.0738 28.2ZM95.9938 19C95.5804 19 95.2471 19.0867 94.9938 19.26C94.7404 19.4333 94.5404 19.6667 94.3938 19.96C94.2604 20.2533 94.1671 20.6 94.1138 21C94.0738 21.3867 94.0471 21.8 94.0337 22.24H97.8338C97.8338 21.04 97.6871 20.2 97.3938 19.72C97.1138 19.24 96.6471 19 95.9938 19Z" fill="white"/>
</svg>
