<svg width="75" height="40" viewBox="0 0 75 40" fill="none" xmlns="http://www.w3.org/2000/svg">
<path d="M-75 20C-75 8.95431 -66.0457 0 -55 0H55C66.0457 0 75 8.95431 75 20C75 31.0457 66.0457 40 55 40H-55C-66.0457 40 -75 31.0457 -75 20Z" fill="#636363"/>
<path d="M-17.64 26.8V28H-23.34V26.8L-21.48 26.4V15.2L-23.34 14.8V13.6H-17.64C-16.5067 13.6 -15.6133 13.7267 -14.96 13.98C-14.2933 14.2333 -13.7933 14.5733 -13.46 15C-13.1267 15.4267 -12.9133 15.9267 -12.82 16.5C-12.7267 17.06 -12.68 17.66 -12.68 18.3C-12.68 18.94 -12.7467 19.5467 -12.88 20.12C-13 20.68 -13.24 21.18 -13.6 21.62C-13.96 22.0467 -14.4667 22.3867 -15.12 22.64C-15.76 22.88 -16.6 23 -17.64 23H-19.5V26.4L-17.64 26.8ZM-17.96 21.5C-17.2667 21.5 -16.7067 21.42 -16.28 21.26C-15.8533 21.1 -15.5267 20.88 -15.3 20.6C-15.0733 20.32 -14.92 19.9933 -14.84 19.62C-14.76 19.2333 -14.72 18.82 -14.72 18.38C-14.72 17.9 -14.76 17.46 -14.84 17.06C-14.92 16.6467 -15.08 16.3 -15.32 16.02C-15.5467 15.7267 -15.8733 15.5 -16.3 15.34C-16.7267 15.18 -17.28 15.1 -17.96 15.1H-19.5V21.5H-17.96ZM-5.24359 19.62C-5.80359 19.62 -6.27026 19.6533 -6.64359 19.72C-7.01693 19.7867 -7.31693 19.92 -7.54359 20.12C-7.77026 20.32 -7.93693 20.5933 -8.04359 20.94C-8.13693 21.2867 -8.18359 21.74 -8.18359 22.3V26.44L-6.10359 26.7V28H-11.5836V26.84L-10.0836 26.44V19.6L-11.6036 19.2V18H-8.68359L-8.28359 19.6C-8.05693 18.9867 -7.66359 18.5333 -7.10359 18.24C-6.54359 17.9467 -5.92359 17.8 -5.24359 17.8V19.62ZM-0.191406 28.2C-0.978073 28.2 -1.63807 28.0733 -2.17141 27.82C-2.70474 27.5667 -3.13141 27.2133 -3.45141 26.76C-3.77141 26.2933 -4.00474 25.7467 -4.15141 25.12C-4.28474 24.48 -4.35141 23.7733 -4.35141 23C-4.35141 22.2267 -4.28474 21.5267 -4.15141 20.9C-4.00474 20.26 -3.77141 19.7133 -3.45141 19.26C-3.13141 18.7933 -2.70474 18.4333 -2.17141 18.18C-1.63807 17.9267 -0.978073 17.8 -0.191406 17.8C0.595261 17.8 1.25526 17.9267 1.78859 18.18C2.32193 18.4333 2.74859 18.7933 3.06859 19.26C3.38859 19.7133 3.61526 20.26 3.74859 20.9C3.89526 21.5267 3.96859 22.2267 3.96859 23C3.96859 23.7733 3.89526 24.48 3.74859 25.12C3.61526 25.7467 3.38859 26.2933 3.06859 26.76C2.74859 27.2133 2.32193 27.5667 1.78859 27.82C1.25526 28.0733 0.595261 28.2 -0.191406 28.2ZM-0.191406 27C0.261927 27 0.621927 26.8867 0.888594 26.66C1.16859 26.4333 1.37526 26.1333 1.50859 25.76C1.65526 25.3733 1.74859 24.9467 1.78859 24.48C1.82859 24 1.84859 23.5067 1.84859 23C1.84859 22.5067 1.82859 22.02 1.78859 21.54C1.74859 21.06 1.65526 20.6333 1.50859 20.26C1.37526 19.8733 1.16859 19.5667 0.888594 19.34C0.621927 19.1133 0.261927 19 -0.191406 19C-0.658073 19 -1.02474 19.1133 -1.29141 19.34C-1.55807 19.5667 -1.76474 19.8733 -1.91141 20.26C-2.04474 20.6333 -2.13141 21.06 -2.17141 21.54C-2.21141 22.02 -2.23141 22.5067 -2.23141 23C-2.23141 23.5067 -2.21141 24 -2.17141 24.48C-2.13141 24.9467 -2.04474 25.3733 -1.91141 25.76C-1.76474 26.1333 -1.55807 26.4333 -1.29141 26.66C-1.02474 26.8867 -0.658073 27 -0.191406 27ZM11.7495 14.5L10.0295 14.1V12.9H13.6495V26.4L15.1495 26.8V28H12.1495L11.7495 26.56C11.5629 27.0667 11.2495 27.4667 10.8095 27.76C10.3695 28.0533 9.7762 28.2 9.02953 28.2C8.36286 28.2 7.80953 28.0667 7.36953 27.8C6.92953 27.52 6.5762 27.1467 6.30953 26.68C6.0562 26.2133 5.86953 25.6667 5.74953 25.04C5.64286 24.4 5.58953 23.72 5.58953 23C5.58953 22.28 5.64286 21.6067 5.74953 20.98C5.8562 20.34 6.04286 19.7867 6.30953 19.32C6.5762 18.8533 6.92286 18.4867 7.34953 18.22C7.78953 17.94 8.34286 17.8 9.00953 17.8C9.74286 17.8 10.3429 17.9533 10.8095 18.26C11.2895 18.5533 11.6029 18.9933 11.7495 19.58V14.5ZM9.50953 19.2C9.12286 19.2 8.80953 19.3067 8.56953 19.52C8.32953 19.7333 8.1362 20.0133 7.98953 20.36C7.8562 20.7067 7.76286 21.1133 7.70953 21.58C7.6562 22.0467 7.62953 22.5267 7.62953 23.02C7.62953 23.5267 7.6562 24.0067 7.70953 24.46C7.76286 24.9133 7.8562 25.3133 7.98953 25.66C8.1362 26.0067 8.32953 26.2867 8.56953 26.5C8.80953 26.7 9.12286 26.8 9.50953 26.8C9.88286 26.8 10.2095 26.7267 10.4895 26.58C10.7695 26.4333 11.0029 26.2333 11.1895 25.98C11.3762 25.7267 11.5162 25.4467 11.6095 25.14C11.7029 24.82 11.7495 24.4867 11.7495 24.14V21.68C11.7495 21 11.5629 20.42 11.1895 19.94C10.8162 19.4467 10.2562 19.2 9.50953 19.2ZM19.9941 28.2C19.4607 28.2 19.0007 28.1267 18.6141 27.98C18.2274 27.82 17.9074 27.6067 17.6541 27.34C17.4007 27.0733 17.2141 26.7667 17.0941 26.42C16.9741 26.06 16.9141 25.68 16.9141 25.28V19.6L15.7141 19.2V18H18.8341V23.96C18.8341 24.3867 18.8541 24.78 18.8941 25.14C18.9341 25.4867 19.0141 25.7867 19.1341 26.04C19.2674 26.28 19.4474 26.4667 19.6741 26.6C19.9007 26.7333 20.1941 26.8 20.5541 26.8C20.9407 26.8 21.2674 26.7267 21.5341 26.58C21.8141 26.4333 22.0407 26.24 22.2141 26C22.3874 25.7467 22.5141 25.4667 22.5941 25.16C22.6741 24.8533 22.7141 24.54 22.7141 24.22V19.6L20.9141 19.2V18H24.6141V26.4L26.1341 26.8V28H23.1141L22.7141 26.34C22.5807 26.9667 22.2741 27.4333 21.7941 27.74C21.3141 28.0467 20.7141 28.2 19.9941 28.2ZM31.2306 28.2C30.444 28.2 29.7906 28.0733 29.2706 27.82C28.7506 27.5667 28.3373 27.2133 28.0306 26.76C27.724 26.2933 27.5106 25.7467 27.3906 25.12C27.2706 24.48 27.2106 23.7733 27.2106 23C27.2106 22.2267 27.2773 21.5267 27.4106 20.9C27.5573 20.26 27.7773 19.7133 28.0706 19.26C28.3773 18.7933 28.764 18.4333 29.2306 18.18C29.6973 17.9267 30.264 17.8 30.9306 17.8C31.5173 17.8 32.0106 17.9133 32.4106 18.14C32.824 18.3533 33.084 18.7267 33.1906 19.26H33.2706L33.6706 18H34.7706V21.26H33.0706C33.0706 21.02 33.044 20.78 32.9906 20.54C32.9373 20.2867 32.8373 20.06 32.6906 19.86C32.5573 19.66 32.3706 19.5 32.1306 19.38C31.904 19.26 31.6173 19.2 31.2706 19.2C30.804 19.2 30.444 19.3067 30.1906 19.52C29.9373 19.72 29.744 20 29.6106 20.36C29.4773 20.7067 29.3973 21.1133 29.3706 21.58C29.344 22.0333 29.3306 22.5067 29.3306 23C29.3306 23.5067 29.344 24 29.3706 24.48C29.3973 24.9467 29.4773 25.3733 29.6106 25.76C29.744 26.1333 29.9373 26.4333 30.1906 26.66C30.444 26.8867 30.804 27 31.2706 27C31.5906 27 31.864 26.9267 32.0906 26.78C32.3173 26.6333 32.4973 26.44 32.6306 26.2C32.764 25.9467 32.8573 25.66 32.9106 25.34C32.9773 25.02 33.0106 24.6933 33.0106 24.36H34.7506C34.7506 24.8933 34.6906 25.3933 34.5706 25.86C34.464 26.3267 34.2706 26.7333 33.9906 27.08C33.724 27.4267 33.364 27.7 32.9106 27.9C32.4706 28.1 31.9106 28.2 31.2306 28.2ZM35.8689 18.4L37.3689 18L37.7689 15.38H39.2689V18H41.1489V19.46H39.2689V24.9C39.2689 25.5133 39.3422 25.96 39.4889 26.24C39.6356 26.52 39.8756 26.66 40.2089 26.66C40.3556 26.66 40.5422 26.64 40.7689 26.6C40.9956 26.56 41.2089 26.5067 41.4089 26.44L41.8289 27.56C41.6289 27.7467 41.3356 27.9 40.9489 28.02C40.5756 28.14 40.1822 28.2 39.7689 28.2C38.9289 28.2 38.3156 27.94 37.9289 27.42C37.5556 26.8867 37.3689 26.0467 37.3689 24.9V19.46H35.8689V18.4Z" fill="white"/>
</svg>
